<svg width="92" height="45" viewBox="0 0 92 45" fill="none" xmlns="http://www.w3.org/2000/svg">
<path d="M55.693 10.0732C52.0121 10.0732 48.7053 11.6738 46.43 14.2164C46.333 14.3257 46.164 14.3257 46.0671 14.2164C43.7917 11.6738 40.4849 10.0732 36.8041 10.0732C29.9407 10.0732 24.3772 15.6368 24.3772 22.5001C24.3772 29.3635 29.9407 34.927 36.8041 34.927C40.4849 34.927 43.7917 33.3265 46.0671 30.7839C46.164 30.6746 46.333 30.6746 46.43 30.7839C48.7053 33.3265 52.0121 34.927 55.693 34.927C62.5564 34.927 68.1199 29.3635 68.1199 22.5001C68.1199 15.6368 62.5564 10.0732 55.693 10.0732ZM55.693 28.9621C53.7047 28.9621 52.0432 28.004 51.0242 26.9216C50.6999 26.5762 50.2972 26.1027 49.8548 25.7013C49.6436 25.5099 49.4336 25.3384 49.2322 25.1843C48.4009 24.5916 47.3694 24.2399 46.2498 24.2399C45.1301 24.2399 44.0987 24.5916 43.2673 25.1843C43.0648 25.3384 42.856 25.5099 42.6447 25.7013C42.2011 26.1027 41.7997 26.5762 41.4754 26.9216C40.4564 28.004 38.7949 28.9621 36.8066 28.9621C36.7556 28.9621 36.7059 28.9596 36.655 28.9584C36.5692 28.9559 36.4835 28.9534 36.399 28.9485C36.3406 28.9447 36.2822 28.9398 36.225 28.9348C36.1902 28.9323 36.1554 28.9286 36.1219 28.9261C32.8747 28.5843 30.3446 25.838 30.3446 22.5001V22.5275C30.3446 22.5088 30.3446 22.4902 30.3446 22.4728V22.5001C30.3446 19.1635 32.8747 16.4172 36.1206 16.0742C36.1567 16.0705 36.1939 16.068 36.23 16.0642C36.2859 16.0593 36.3418 16.0556 36.3977 16.0518C36.4835 16.0469 36.5692 16.0444 36.6562 16.0419C36.7059 16.0419 36.7556 16.0382 36.8053 16.0382C38.7936 16.0382 40.4551 16.9963 41.4741 18.0786C41.7985 18.4241 42.2011 18.8976 42.6435 19.299C42.8548 19.4903 43.0648 19.6618 43.2661 19.8159C44.0974 20.4087 45.1289 20.7604 46.2485 20.7604C47.3682 20.7604 48.3996 20.4087 49.231 19.8159C49.4336 19.6618 49.6423 19.4903 49.8536 19.299C50.2972 18.8976 50.6986 18.4241 51.023 18.0786C52.042 16.9963 53.7034 16.0382 55.6917 16.0382C55.7414 16.0382 55.7899 16.0406 55.8396 16.0419C55.9266 16.0444 56.0136 16.0469 56.0993 16.0518C56.154 16.0556 56.2087 16.0593 56.2634 16.0642C56.3019 16.0667 56.3404 16.0705 56.3789 16.0742C59.5006 16.4047 61.9586 18.9572 62.1413 22.1211C62.1413 22.1422 62.1438 22.1621 62.145 22.182C62.1475 22.2404 62.1488 22.3001 62.15 22.3585C62.1512 22.4467 62.1525 22.5337 62.15 22.6219C62.1488 22.6878 62.1488 22.7549 62.145 22.8208C62.145 22.8344 62.1425 22.8481 62.1425 22.8618C61.9673 26.0319 59.5056 28.593 56.3789 28.9236C56.3392 28.9273 56.3007 28.9311 56.2609 28.9335C56.2075 28.9385 56.154 28.9422 56.1006 28.946C56.0148 28.9509 55.9266 28.9534 55.8396 28.9559C55.7899 28.9559 55.7414 28.9596 55.6917 28.9596L55.693 28.9621Z" fill="url(#paint0_linear_4840_26700)"/>
<path d="M13.1719 19.0877L16.8689 20.2882C17.4181 20.5118 19.4064 21.0089 20.8977 22.5001C22.2708 23.8733 22.886 25.7112 22.886 27.4995C22.886 32.9387 17.2715 34.927 13.193 34.927C6.97953 34.927 4.30029 32.1757 3.5 31.4475L7.17339 26.7539C7.43311 27.1068 9.96199 29.4592 13.193 29.4592C14.4357 29.4592 16.424 28.9621 16.424 27.4709C16.424 26.4767 15.4037 25.6939 13.193 24.9855L9.49722 23.7838C6.95468 22.776 4.99123 21.0089 4.99123 17.5294C4.99123 15.6243 5.72317 14.1741 6.05746 13.6547C8.12405 10.4374 12.2585 10.0732 13.6901 10.0732C16.2077 10.0732 18.0681 10.538 19.4176 11.1084C21.1313 11.8329 22.0223 12.7276 22.3889 13.0557L19.3257 16.9702C15.83 14.8079 13.6515 14.9694 12.4474 15.3969C11.6272 15.6877 11.3662 16.3414 11.3289 16.7639C11.283 17.2846 11.3662 18.4129 13.1719 19.0865V19.0877Z" fill="#FCFCFD"/>
<path d="M80.5467 10.1975H70.6052V34.8028H76.5701V26.601H80.5467C84.7334 26.601 88.5 24.1156 88.5 18.3993C88.5 12.6829 84.7334 10.1975 80.5467 10.1975ZM82.535 18.3993C82.535 20.1838 81.0886 21.6303 79.3041 21.6303H76.5701V15.1683H79.3041C81.0886 15.1683 82.535 16.6148 82.535 18.3993Z" fill="#FCFCFD"/>
<defs>
<linearGradient id="paint0_linear_4840_26700" x1="28.846" y1="8.89033" x2="65.1832" y2="37.1509" gradientUnits="userSpaceOnUse">
<stop stop-color="#0082FF"/>
<stop offset="0.42" stop-color="#0A96FF"/>
<stop offset="0.56" stop-color="#05BCFF"/>
<stop offset="0.76" stop-color="#00F0FF"/>
<stop offset="0.79" stop-color="#04F0FC"/>
<stop offset="0.82" stop-color="#10F1F5"/>
<stop offset="0.85" stop-color="#24F4E8"/>
<stop offset="0.89" stop-color="#40F7D7"/>
<stop offset="0.92" stop-color="#64FBC1"/>
<stop offset="0.94" stop-color="#82FFB0"/>
</linearGradient>
</defs>
</svg>
